<?xml version="1.0" standalone="no"?>
<!DOCTYPE svg PUBLIC "-//W3C//DTD SVG 20010904//EN"
 "http://www.w3.org/TR/2001/REC-SVG-20010904/DTD/svg10.dtd">
<svg version="1.0" xmlns="http://www.w3.org/2000/svg"
 width="702.000000pt" height="702.000000pt" viewBox="0 0 702.000000 702.000000"
 preserveAspectRatio="xMidYMid meet">
<metadata>
Created by potrace 1.14, written by Peter Selinger 2001-2017
</metadata>
<g transform="translate(0.000000,702.000000) scale(0.100000,-0.100000)"
fill="#000000" stroke="none">
<path d="M10 3510 l0 -3510 3500 0 3500 0 0 3510 0 3510 -3500 0 -3500 0 0
-3510z m1755 1845 c96 -25 142 -51 210 -116 88 -84 114 -143 240 -544 154
-490 285 -886 303 -912 8 -13 25 -26 39 -29 51 -13 66 16 189 395 196 605 211
652 254 791 23 74 55 158 70 185 68 119 206 214 344 237 188 31 392 -73 482
-247 17 -33 133 -370 257 -750 124 -379 301 -919 392 -1200 106 -324 174 -518
188 -532 25 -27 57 -29 85 -5 23 19 36 58 296 882 96 305 231 732 300 948 69
216 126 405 126 419 0 134 -141 244 -278 215 -63 -13 -126 -57 -164 -114 -16
-23 -47 -100 -69 -172 -153 -485 -289 -899 -303 -920 -27 -42 -72 -60 -117
-47 -48 15 -89 62 -89 104 0 18 30 124 66 237 36 113 108 340 159 505 112 359
116 371 156 446 63 117 194 208 334 232 194 33 410 -84 498 -270 27 -59 32
-81 35 -168 5 -120 1 -135 -118 -500 -92 -281 -147 -455 -425 -1340 -206 -657
-321 -1007 -345 -1055 -42 -83 -164 -81 -203 2 -16 35 -29 74 -542 1638 -180
547 -347 1058 -373 1134 -29 88 -57 154 -77 180 -110 144 -302 147 -404 5 -18
-24 -51 -106 -85 -207 -95 -291 -282 -879 -350 -1102 -64 -211 -132 -417 -160
-485 -19 -44 -69 -75 -123 -75 -33 0 -50 7 -77 30 -31 28 -42 54 -115 278 -44
136 -118 371 -165 522 -183 592 -312 979 -343 1029 -94 150 -307 156 -404 11
-45 -67 -45 -102 -4 -236 44 -141 235 -744 497 -1564 307 -962 335 -1051 362
-1141 33 -111 71 -163 143 -196 75 -34 178 -30 247 11 62 36 85 79 151 291 31
99 98 311 150 470 51 160 115 358 140 440 26 83 89 281 141 442 83 257 98 294
125 317 56 47 137 28 173 -42 11 -22 294 -902 543 -1691 39 -122 51 -151 85
-187 42 -46 92 -69 171 -79 129 -17 158 -172 41 -221 -92 -38 -294 39 -390
150 -52 59 -96 158 -154 346 -94 304 -269 819 -305 897 -42 91 -60 113 -91
113 -61 0 -109 -100 -229 -475 -254 -799 -261 -816 -339 -898 -95 -98 -210
-147 -346 -147 -137 0 -249 48 -344 146 -89 93 -103 129 -332 859 -123 390
-290 918 -589 1855 -115 362 -130 437 -106 549 54 254 318 420 566 356z"/>
</g>
</svg>
